<?xml version="1.0" encoding="UTF-8" standalone="no"?>
<!-- Created with Inkscape (http://www.inkscape.org/) -->

<svg
   xmlns:dc="http://purl.org/dc/elements/1.1/"
   xmlns:cc="http://creativecommons.org/ns#"
   xmlns:rdf="http://www.w3.org/1999/02/22-rdf-syntax-ns#"
   xmlns:svg="http://www.w3.org/2000/svg"
   xmlns="http://www.w3.org/2000/svg"
   xmlns:sodipodi="http://sodipodi.sourceforge.net/DTD/sodipodi-0.dtd"
   xmlns:inkscape="http://www.inkscape.org/namespaces/inkscape"
   width="471.35675"
   height="327.74164"
   id="svg2"
   version="1.1"
   inkscape:version="0.48.2 r9819"
   sodipodi:docname="Logo Qatar Airways.svg">
  <defs
     id="defs4" />
  <sodipodi:namedview
     id="base"
     pagecolor="#ffffff"
     bordercolor="#666666"
     borderopacity="1.0"
     inkscape:pageopacity="0.0"
     inkscape:pageshadow="2"
     inkscape:zoom="0.98994949"
     inkscape:cx="241.94567"
     inkscape:cy="190.87189"
     inkscape:document-units="px"
     inkscape:current-layer="layer1"
     showgrid="false"
     fit-margin-bottom="5"
     fit-margin-top="5"
     fit-margin-right="5"
     fit-margin-left="5"
     inkscape:window-width="1366"
     inkscape:window-height="706"
     inkscape:window-x="-8"
     inkscape:window-y="-8"
     inkscape:window-maximized="1" />
  <metadata
     id="metadata7">
    <rdf:RDF>
      <cc:Work
         rdf:about="">
        <dc:format>image/svg+xml</dc:format>
        <dc:type
           rdf:resource="http://purl.org/dc/dcmitype/StillImage" />
        <dc:title></dc:title>
      </cc:Work>
    </rdf:RDF>
  </metadata>
  <g
     inkscape:label="Calque 1"
     inkscape:groupmode="layer"
     id="layer1"
     transform="translate(-260.77925,-628.85557)">
    <g
       id="g3384"
       transform="matrix(3.5928585,0,0,3.5928585,262.15765,630.18726)"
       style="fill:#ff0000">
      <path
         id="path3346"
         d="m 73.16,6.182 c -0.695,0.662 -1.646,2.374 -1.646,4.774 0,0.576 0,14.332 0,14.824 0,1.23 -0.455,2.402 -1.187,3.066 -0.385,0.354 -2.801,2.546 -2.95,2.662 h 1.394 c 0.422,-0.402 4.817,-4.275 5.274,-4.801 0.596,-0.682 2.021,-2.403 2.021,-5.108 0,-0.635 0.01,-13.671 0.01,-14.245 0,-2.137 0.989,-3.322 1.507,-3.895 0.526,-0.586 2.193,-2.027 2.62,-2.408 L 78.826,1.037 C 78.429,1.405 73.637,5.731 73.16,6.182"
         inkscape:connector-curvature="0"
         style="fill:#ff0000" />
      <path
         id="path3348"
         d="m 62.28,60.149 5.38,4.701 h 3.607 c 3.662,0 7.007,-1.57 9.22,-3.781 2.211,-2.211 3.027,-5.178 3.027,-7.957 0,-2.021 0,-7.338 0,-7.707 0,-2.59 -1.624,-4.098 -2.079,-4.549 -0.246,-0.244 -1.815,-1.724 -1.815,-1.724 v 5.916 c 0,0 1.727,1.78 2.066,2.14 1.601,1.699 1.583,4.787 -3.471,9.713 -0.888,0.863 -3.413,3.248 -6.888,3.248 -0.495,0 -9.047,0 -9.047,0"
         inkscape:connector-curvature="0"
         style="fill:#ff0000" />
      <path
         id="path3350"
         d="m 84.173,32.831 c 0,0 1.544,1.773 2.152,2.248 2.036,1.603 2.929,-0.229 1.619,-2.323 -0.31,-0.502 -1.576,-1.343 -3.771,0.075 m -6.926,-4.307 c -0.602,0.633 -1.172,2.184 -1.172,3.551 0,0.76 0,2.92 0,2.92 0,0 2.373,0 2.954,0 1.153,0 2.194,-0.856 3.002,-1.603 0.021,-0.038 0,-2.897 0,-2.897 0,0 0.758,0.871 1.432,1.572 0.992,-0.906 3.549,-3.58 5.408,-3.58 3.768,0 2.914,4.721 1.372,6.239 -0.497,0.491 -2.72,2.529 -3.408,3.183 -1.776,1.695 -4.823,0.885 -4.823,-3.489 0,0 -3.265,3.101 -3.76,3.51 -0.498,0.413 -2.177,2.196 -2.177,2.196 0,0 0,6.949 0,7.689 0,3.689 -1.119,5.018 -2.222,6.037 -0.489,0.451 -4.454,4.049 -5.169,4.678 h -1.406 c 0,0 2.554,-2.229 3.037,-2.734 0.555,-0.57 1.198,-1.742 1.198,-3.689 0,-0.492 -0.06,-12.082 -0.06,-12.082 0,0 -18.064,0 -18.887,0 -6.57,0 -7.973,-7.289 -8.014,-9.238 -0.011,-0.576 0,-6.397 0,-7.303 0,-1.201 -0.766,-3.219 -1.992,-3.844 h 1.851 c 0.215,0.092 1.379,0.563 1.379,5.031 0,0 -0.078,5.201 -0.078,5.479 0,2.266 1.801,4.866 4.406,4.866 0.532,0 21.375,-0.021 21.375,-0.021 0.02,-0.575 0.599,-2.758 1.626,-3.907 0.578,-0.652 5.166,-4.847 5.688,-5.251 l 1.357,-0.014 c -0.197,0.187 -2.424,2.176 -2.917,2.701 z"
         inkscape:connector-curvature="0"
         style="fill:#ff0000" />
      <path
         id="path3352"
         d="m 61.344,46.673 c 0,1.029 -3.294,3.773 -3.487,3.965 -0.238,-1.111 -1.07,-2.338 -3.527,-4.797 l 3.607,-3.609 c 2.417,2.417 3.407,2.933 3.407,4.441"
         inkscape:connector-curvature="0"
         style="fill:#ff0000" />
      <path
         id="path3354"
         d="m 55.03,25.446 c -0.986,1.035 -1.16,1.295 -2.085,1.849 0.085,0 10.935,0 11.289,0 3.062,0 2.45,-1.897 1.898,-2.856 -1.119,-1.965 -4.672,-5.613 -4.672,-5.613 0,0 -6.222,6.403 -6.43,6.62 M 67.6,5.312 c 0.726,0.727 2.284,2.686 1.349,3.622 -0.827,0.826 -2.105,2.14 -2.105,2.14 -0.061,-0.475 -1.262,-1.612 -1.262,-1.612 0,0 0.011,3.485 0,3.917 -0.038,1.572 -0.635,2.021 -0.635,2.021 0,0 2.908,2.883 2.908,6.59 0,1.799 0.005,3.449 0.005,3.805 0,0.762 -0.191,1.348 -0.721,1.931 -0.262,0.29 -2.954,3 -3.365,3.37 -0.779,0.702 -1.598,0.82 -2.215,0.82 -0.433,0 -9.735,0 -10.021,0 -1.578,0 -3.206,-1.231 -3.206,-2.467 0,-0.306 0.022,-3.713 0.022,-3.713 0.512,0.592 1.036,1.289 2.298,1.272 0.987,-0.019 2.021,-0.791 2.303,-1.069 0.283,-0.287 7.58,-7.912 7.58,-7.912 0,0 -3.415,-3.166 -5.669,-4.674 -1.1,-0.732 -2.554,0.195 -2.772,1.165 -0.694,3.029 0,7.583 0,7.583 0,0 -2.23,-2.229 -2.767,-2.762 -1.118,-1.118 -1.074,-3.645 0.253,-4.971 0.207,-0.213 2.23,-2.494 4.801,-2.494 0.409,0 3.548,0 4.001,0 2.682,0 5.577,2.629 5.577,2.629 0,0 0.429,-0.475 0.429,-0.928 0,-1.375 -0.01,-5.043 -0.01,-5.043 C 62.36,6.511 62.088,4.43 63.056,3.46 c 1.802,-1.807 2.465,-2.439 2.465,-2.439 0,0 -0.022,2.187 2.079,4.291 z"
         inkscape:connector-curvature="0"
         style="fill:#ff0000" />
      <path
         id="path3356"
         d="m 42.16,35.718 h -1.853 c 0,0 1.994,1.096 1.994,3.916 0,0.744 0,8.393 0,9.008 0,5.859 4.835,11.281 10.71,11.281 0.988,0 4.248,0 4.905,0 2.945,0 3.979,-0.713 5.762,-2.295 0.65,-0.58 1.498,-1.531 1.813,-1.879 1.024,-1.148 2.115,-2.074 2.115,-5.096 0,-0.738 0,-2.539 0,-2.951 0,-2.547 -1.478,-3.607 -2.185,-4.318 -0.457,-0.459 -1.715,-1.657 -1.715,-1.657 v 6.038 c 0,0 1.235,1.316 1.784,1.748 2.545,2.01 0.524,5.518 -1.849,5.518 -0.471,0 -10.115,0.004 -10.773,0.004 -4.146,0 -9.33,-3.439 -9.33,-9.392 0,-0.799 0,-4.374 0,-4.896 0.002,-5.029 -1.378,-5.029 -1.378,-5.029"
         inkscape:connector-curvature="0"
         style="fill:#ff0000" />
      <path
         id="path3358"
         d="m 53.971,46.69 c 0,1.029 -3.297,3.771 -3.49,3.963 -0.236,-1.111 -1.07,-2.34 -3.529,-4.799 l 3.61,-3.609 c 2.417,2.42 3.409,2.937 3.409,4.445"
         inkscape:connector-curvature="0"
         style="fill:#ff0000" />
      <path
         id="path3360"
         d="m 16.229,86.776 c -0.591,0 -5.144,-0.006 -5.772,-0.006 -1.806,0 -1.665,-1.518 -1.823,-2.785 v -8.301 c 0,0 1.266,-0.031 2.656,-0.031 1.604,0 3.607,-0.236 5.55,0.865 0,0 -1.4,-3.352 -5.561,-3.352 H 8.634 c 0,0 0,-0.477 0,-1.633 v -1.029 c 0,0 0,-2.324 -0.571,-2.986 0,0 3.537,0.012 3.787,0.014 3.309,0.004 5.873,-0.049 8.539,1.699 0,0 -0.511,-4.361 -6.921,-4.361 -3.638,0 -11.939,0 -12.46,0 0,0 2.225,1.857 2.093,5.623 l 0.132,15.082 c 0,3.816 1.484,3.879 1.484,3.879 0.15,0 0.908,0 4.267,0 0.56,0 1.228,0 1.938,0 1.795,0 4.154,0 6.068,0 2.792,0 3.762,-1.957 3.762,-3.053 l 0.041,-1.455 c -10e-4,0 -0.886,1.83 -4.564,1.83"
         inkscape:connector-curvature="0"
         style="fill:#ff0000" />
      <path
         id="path3362"
         d="M 48.893,85.491 V 74.942 c 0,-4.09 -3.365,-5.182 -5.848,-5.182 -3.283,0 -4.279,2.766 -4.696,3.695 -0.744,-2.559 -3.325,-3.729 -5.442,-3.729 -3.956,0 -4.971,3.791 -4.971,3.791 0,0 -0.096,-3.654 -3.307,-3.654 l -3.131,0.006 c 0,0 1.8,0.748 1.8,3.908 L 23.295,85.49 c 0,3.904 1.569,3.941 1.569,3.941 H 30.06 C 29.923,89.394 28.062,87.984 28.062,85.46 V 75.073 c 0.065,-0.467 0.849,-2.016 3.09,-2.016 1.229,0 2.607,1.297 2.585,2.781 l -0.008,9.648 c 0,3.934 1.548,3.943 1.548,3.943 h 5.214 c 0,0 -1.996,-1.395 -1.996,-3.979 L 38.479,75.061 c 0.193,-0.582 0.883,-1.977 2.854,-1.977 1.538,0 2.828,1.299 2.791,2.785 0,0 -0.011,8.811 -0.007,9.629 0.026,3.951 1.55,3.92 1.55,3.92 2.717,0 5.216,0.01 5.216,0.01 0,0 -1.99,-1.368 -1.99,-3.937"
         inkscape:connector-curvature="0"
         style="fill:#ff0000" />
      <path
         id="path3364"
         d="m 57.952,85.485 c 0,2.6 2,3.945 2,3.945 0,0 -2.476,-0.01 -5.195,-0.01 0,0 -1.547,0.018 -1.547,-3.902 V 85.5 l 0.007,-11.754 c 0,-3.092 -1.798,-3.887 -1.798,-3.887 h 3.099 c 1.106,0 3.419,0 3.419,4.375 l -0.008,11.232 0.023,0.019"
         inkscape:connector-curvature="0"
         style="fill:#ff0000" />
      <path
         id="path3366"
         d="m 73.892,71.343 c 0,0 -0.501,-1.412 -2.654,-1.412 -3.259,0 -4.053,3.852 -4.053,3.852 -0.271,-3.039 -1.086,-3.945 -3.342,-3.945 l -3.146,0.004 c 0,0 1.828,0.754 1.828,3.906 l -0.009,11.734 c 0,3.906 1.563,3.943 1.563,3.943 h 5.146 c -0.132,-0.037 -1.987,-1.449 -1.987,-3.979 l 0.008,-9.592 c 0.125,-0.879 0.577,-1.545 1.272,-1.996 1.703,-1.082 4.041,-0.816 5.375,0.787 -0.001,0.001 -0.001,-2.054 -0.001,-3.302"
         inkscape:connector-curvature="0"
         style="fill:#ff0000" />
      <path
         id="path3368"
         d="m 97.973,72.056 c 1.761,0 3.075,0.766 3.075,0.766 l 0.012,-2.963 H 96.72 V 65.38 c 0,0 -1.124,1.99 -3.474,3.891 -1.471,1.215 -4.564,2.707 -4.564,2.707 l 3.296,0.061 -0.007,13.609 c 0,3.773 1.583,3.773 1.583,3.773 2.842,0 5.138,0.01 5.138,0.01 0,0 -1.979,-1.346 -1.979,-3.818 L 96.72,72.05 c 1.34,0.004 0.403,0.006 1.253,0.006"
         inkscape:connector-curvature="0"
         style="fill:#ff0000" />
      <path
         id="path3370"
         d="m 110.523,76.718 c 0.861,-1.59 1.537,-5.607 -1.403,-5.387 -3.369,0.252 -2.722,9.277 -2.722,9.277 1.117,-1.236 2.811,-1.486 4.125,-3.89 m 3.189,1.254 c -2.914,3.018 -5.201,2.545 -6.977,4.773 0,0 0.286,3.01 2.554,4.074 0.789,0.363 3.993,1.389 6.063,-2.23 l -0.005,3.438 c 0,0 -1.334,1.426 -5.568,1.426 -5.05,0 -8.545,-3.99 -8.545,-9.4 0,-5.322 2.851,-10.268 8.178,-10.291 5.27,-0.034 8.126,4.202 4.3,8.21 z"
         inkscape:connector-curvature="0"
         style="fill:#ff0000" />
      <path
         id="path3372"
         d="m 55.536,68.271 c 1.34,0 2.429,-1.037 2.429,-2.348 0,-1.311 -1.089,-2.375 -2.429,-2.375 -1.34,0 -2.373,1.064 -2.373,2.375 0,1.311 1.033,2.348 2.373,2.348"
         inkscape:connector-curvature="0"
         style="fill:#ff0000" />
      <path
         id="path3374"
         d="m 125.111,84.108 c 0.039,1.387 -1.193,3.217 -3.827,3.217 -2.584,0 -3.72,-2.775 -3.72,-2.775 l -0.021,3.502 c 0,0 1.914,1.385 4.906,1.385 h -0.003 c 3.563,0 7.076,-2.674 6.969,-6.412 -0.037,-1.326 -0.49,-2.453 -1.195,-3.424 -1.208,-1.584 -3.386,-2.756 -5.113,-3.754 -2.344,-1.357 -2.028,-4.273 1.411,-3.996 2.576,0.207 3.667,2.689 3.667,2.689 v -3.262 c 0,0 -1.985,-1.566 -4.98,-1.566 -3.111,0 -5.878,2.059 -5.801,4.676 0.068,2.316 1.012,3.826 2.912,5.207 0.754,0.564 1.652,1.105 2.69,1.686 1.521,0.835 2.079,1.865 2.105,2.827"
         inkscape:connector-curvature="0"
         style="fill:#ff0000" />
      <path
         id="path3376"
         d="m 82.756,74.167 c 0,1.916 -1.625,2.773 -2.686,3.238 -3.089,1.35 -7.041,2.838 -7.041,7.326 0,3.004 2.177,4.727 5.235,4.727 2.344,0 3.521,-1.211 4.104,-2.352 0.354,2.213 1.457,2.314 1.457,2.314 2.701,0 5.176,0.016 5.176,0.016 0,0 -2.019,-1.371 -2.019,-3.938 V 74.507 c 0,-2.639 -2.919,-4.682 -6.016,-4.682 -2.979,0 -4.859,1.438 -4.859,1.438 0,0.881 0,3.406 0,3.406 0,0 1.063,-2.703 3.756,-2.703 2.235,0 2.893,1.096 2.893,2.201 m -2.804,13.035 c -1.632,0 -2.743,-0.875 -2.743,-2.729 0,-4.41 4.005,-5.318 5.079,-6.623 l -0.007,8.23 c -0.035,0.032 -0.721,1.122 -2.329,1.122 z"
         inkscape:connector-curvature="0"
         style="fill:#ff0000" />
    </g>
  </g>
</svg>
